# xmcd
#
# Track frame offsets:
#	150
#	18287
#	52657
#	87182
#	106037
#	129405
#	156027
#
# Disc length: 2310 seconds
# Revision: 0
# Processed by: cddbd v1.5.2PL0 Copyright (c) Steve Scherf et al.
# Submitted via: dBpowerAMP V12.0
#
DISCID=40090407
DTITLE=Juliet Roberts - Free Love
DYEAR=1992
DGENRE=House
TTITLE0=Free Love [U.S. Radio Version]
TTITLE1=Free Love [Monster Club Mix]
TTITLE2=Free Love [KoJo’s Mix]
TTITLE3=Free Love [Steve Blows]
TTITLE4=Free Love [Drum And Bass Mix]
TTITLE5=Free Love [La La Dub]
TTITLE6=Free Love [Dan’s Dub]
EXTD=
EXTT0=
EXTT1=
EXTT2=
EXTT3=
EXTT4=
EXTT5=
EXTT6=
PLAYORDER=
